<svg width="119" height="119" viewBox="0 0 119 119" fill="none" xmlns="http://www.w3.org/2000/svg">
<g clip-path="url(#clip0_511_310)">
<path fill-rule="evenodd" clip-rule="evenodd" d="M99.1667 14.875C104.395 14.875 108.678 18.9204 109.056 24.0516L109.083 24.7917V94.2083C109.083 99.4364 105.038 103.719 99.9069 104.098L99.1667 104.125H19.8334C14.6055 104.125 10.3225 100.08 9.94395 94.9484L9.91675 94.2083V24.7917C9.91675 19.5638 13.9621 15.2808 19.0933 14.9022L19.8334 14.875H99.1667ZM99.1667 24.7917H19.8334V94.2083H99.1667V24.7917ZM51.2697 37.872L53.8354 39.0166L55.5139 39.8066L57.4302 40.744L59.5648 41.8305L61.8983 43.0676L64.4111 44.4571C64.8438 44.7015 65.2831 44.9523 65.7287 45.2095L68.2976 46.7247L70.6487 48.1695L72.7738 49.5262L74.6646 50.777L77.0431 52.416L78.8475 53.717C79.0151 53.8405 79.1715 53.9567 79.3166 54.0652C82.5955 56.5171 82.6099 61.4194 79.317 63.8812L77.7192 65.0489L75.5384 66.5733L73.7717 67.7601L71.7627 69.0641L69.5179 70.4687L67.044 71.9572L64.3961 73.486L61.8709 74.8835L59.533 76.1248L57.3998 77.2125L55.4891 78.1489L52.4057 79.5779L51.2683 80.0756C47.4857 81.6985 43.2455 79.2287 42.7659 75.1599L42.476 72.361L42.3216 70.5097L42.1097 67.2153L41.9978 64.6988L41.9225 61.9457C41.9136 61.468 41.9067 60.9813 41.9021 60.4857L41.8949 58.9729C41.8949 57.9476 41.9047 56.9561 41.9225 56.0011L41.9978 53.2487L42.1096 50.7327L42.2468 48.47L42.3982 46.4773L42.7657 42.7881C43.2461 38.7116 47.4942 36.2522 51.2697 37.872ZM54.3 50.2729L52.1374 49.1898L51.9944 51.6086L51.8834 54.3407L51.8203 57.3617C51.8147 57.8879 51.8117 58.4252 51.8117 58.9729L51.8203 60.5835L51.8832 63.6033C51.8981 64.0832 51.915 64.5511 51.9336 65.0065L52.0624 67.5842C52.0864 67.9874 52.1113 68.3771 52.137 68.7528L54.29 67.6718L56.7052 66.4029L59.3576 64.9428C59.818 64.6833 60.2873 64.4158 60.7649 64.14L63.4964 62.5254L65.9477 61.0094L68.1094 59.6152C68.445 59.3942 68.7681 59.1793 69.0786 58.9709L67.0593 57.6396L64.7503 56.1782C63.5254 55.4192 62.1965 54.6209 60.7704 53.7974L59.3686 52.998L56.7196 51.5415L54.3 50.2729Z" fill="#F0F3FF"/>
</g>
<defs>
<clipPath id="clip0_511_310">
<rect width="119" height="119" fill="white"/>
</clipPath>
</defs>
</svg>
